Cinzel-Bold.ufo
<glyph name="quotedbl" format="1">
  <advance width="394"/>
  <unicode hex="0022"/>
  <outline>
    <contour>
      <point x="69.4716" y="627.334"/>
      <point x="64.8385" y="592.918"/>
      <point x="30" y="505.251" type="curve"/>
      <point x="46.902" y="500" type="line"/>
      <point x="164.31" y="535.343"/>
      <point x="193.678" y="662.464"/>
      <point x="190.525" y="714" type="curve"/>
      <point x="59.3282" y="700" type="line"/>
    </contour>
    <contour>
      <point x="243.124" y="627.334"/>
      <point x="238.491" y="592.918"/>
      <point x="203.652" y="505.251" type="curve"/>
      <point x="220.554" y="500" type="line"/>
      <point x="337.962" y="535.343"/>
      <point x="367.33" y="662.464"/>
      <point x="364.178" y="714" type="curve"/>
      <point x="232.98" y="700" type="line"/>
    </contour>
  </outline>
</glyph>
<glyph name="A" format="1">
  <advance width="720"/>
  <unicode hex="0041"/>
  <outline>
    <contour>
      <point x="263.51" y="468" type="line"/>
      <point x="456.573" y="6.095" type="line"/>
      <point x="696.633" y="6.095" type="line"/>
      <point x="351.414" y="724" type="line" smooth="yes"/>
    </contour>
    <contour>
      <point x="56.6997" y="73.013" type="line"/>
      <point x="35.4877" y="28.464"/>
      <point x="-1" y="10"/>
      <point x="-31" y="10" type="curve" smooth="yes"/>
      <point x="-31" y="10"/>
      <point x="-40" y="10"/>
      <point x="-40" y="10" type="curve"/>
      <point x="-40" y="0" type="line"/>
      <point x="183.279" y="0" type="line"/>
      <point x="183.279" y="9.908" type="line"/>
      <point x="174.487" y="9.908" type="line" smooth="yes"/>
      <point x="148.67" y="9.908"/>
      <point x="118.49" y="32.664"/>
      <point x="136.092" y="72.681" type="curve"/>
    </contour>
    <contour>
      <point x="342.408" y="724" type="line"/>
      <point x="338.408" y="690.283"/>
      <point x="297.112" y="599.922"/>
      <point x="285.361" y="574.867" type="curve"/>
      <point x="24.19" y="3.095" type="line"/>
      <point x="105.233" y="3.095" type="line"/>
      <point x="351.3" y="567.543" type="line"/>
      <point x="351.414" y="724" type="line"/>
    </contour>
    <contour>
      <point x="150.293" y="216" type="line"/>
      <point x="150.293" y="166" type="line"/>
      <point x="432.513" y="166" type="line"/>
      <point x="432.513" y="216" type="line"/>
    </contour>
    <contour>
      <point x="444.745" y="32.664"/>
      <point x="415.815" y="9.911"/>
      <point x="389.999" y="9.911" type="curve" smooth="yes"/>
      <point x="381.207" y="9.911" type="line"/>
      <point x="381.207" y="0" type="line"/>
      <point x="760.264" y="0" type="line"/>
      <point x="760.264" y="10" type="line"/>
      <point x="760.264" y="10"/>
      <point x="751.901" y="10"/>
      <point x="751.901" y="10" type="curve" smooth="yes"/>
      <point x="721.254" y="10"/>
      <point x="686.244" y="28.464"/>
      <point x="664.032" y="73.013" type="curve"/>
      <point x="428.143" y="72.681" type="line"/>
    </contour>
    <contour>
      <point x="547" y="10" type="move" name="ogonek"/>
    </contour>
    <contour>
      <point x="348.812" y="764" type="move" name="top"/>
    </contour>
  </outline>
</glyph>
<glyph name="a" format="1">
  <advance width="632"/>
  <unicode hex="0061"/>
  <outline>
    <contour>
      <point x="222.195" y="390.617" type="line"/>
      <point x="390.539" y="5.10484" type="line"/>
      <point x="617.766" y="5.10484" type="line"/>
      <point x="307.614" y="636.407" type="line" smooth="yes"/>
    </contour>
    <contour>
      <point x="43.315" y="61.1484" type="line"/>
      <point x="25.6194" y="23.8382"/>
      <point x="-8" y="9.99998"/>
      <point x="-34" y="9.99998" type="curve" smooth="yes"/>
      <point x="-34" y="9.99998"/>
      <point x="-42" y="9.99998"/>
      <point x="-42" y="9.99998" type="curve"/>
      <point x="-42" y="0" type="line"/>
      <point x="164.452" y="0" type="line"/>
      <point x="164.452" y="9.90824" type="line"/>
      <point x="156.649" y="9.90824" type="line" smooth="yes"/>
      <point x="133.741" y="9.90824"/>
      <point x="107.858" y="27.3557"/>
      <point x="122.541" y="60.8705" type="curve"/>
    </contour>
    <contour>
      <point x="299.762" y="636.407" type="line"/>
      <point x="296.05" y="606.839"/>
      <point x="259.343" y="528.783"/>
      <point x="247.79" y="503.389" type="curve"/>
      <point x="16.1554" y="2.59234" type="line"/>
      <point x="97.1605" y="2.59234" type="line"/>
      <point x="306.836" y="482.983" type="line"/>
      <point x="307.614" y="636.407" type="line"/>
    </contour>
    <contour>
      <point x="125.565" y="172.492" type="line"/>
      <point x="125.565" y="127.097" type="line"/>
      <point x="375.002" y="127.097" type="line"/>
      <point x="375.002" y="172.492" type="line"/>
    </contour>
    <contour>
      <point x="380.852" y="27.3557"/>
      <point x="355.197" y="9.91059"/>
      <point x="332.288" y="9.91059" type="curve" smooth="yes"/>
      <point x="324.488" y="9.91059" type="line"/>
      <point x="324.488" y="0" type="line"/>
      <point x="675.622" y="0" type="line"/>
      <point x="675.622" y="10" type="line"/>
      <point x="675.622" y="10"/>
      <point x="668.201" y="10"/>
      <point x="668.201" y="10" type="curve" smooth="yes"/>
      <point x="641.007" y="10"/>
      <point x="608.91" y="23.8382"/>
      <point x="590.231" y="61.1483" type="curve"/>
      <point x="366.15" y="60.8705" type="line"/>
    </contour>
    <contour>
      <point x="578.344" y="9.97223" type="move" name="ogonek"/>
    </contour>
    <contour>
      <point x="304.521" y="664" type="move" name="top"/>
    </contour>
  </outline>
</glyph>
<glyph name="b" format="1">
  <advance width="626"/>
  <unicode hex="0062"/>
  <outline>
    <contour>
      <point x="138.61" y="600.069"/>
      <point x="146.525" y="556.069"/>
      <point x="146.525" y="555.079" type="curve"/>
      <point x="280.82" y="555.084" type="line"/>
      <point x="328.654" y="555.084"/>
      <point x="370.09" y="528.224"/>
      <point x="370.09" y="435.055" type="curve" smooth="yes"/>
      <point x="370.09" y="370.337"/>
      <point x="359.029" y="324.647"/>
      <point x="306.127" y="324.647" type="curve"/>
      <point x="306.115" y="316.661" type="line"/>
      <point x="371.819" y="317.71"/>
      <point x="390.107" y="261.844"/>
      <point x="390.107" y="187.37" type="curve" smooth="yes"/>
      <point x="390.107" y="81.0259"/>
      <point x="334.681" y="46.0379"/>
      <point x="273.033" y="46.0379" type="curve"/>
      <point x="271.391" y="46.0379" type="line"/>
      <point x="271.391" y="46.0379"/>
      <point x="271.439" y="0"/>
      <point x="271.439" y="0" type="curve"/>
      <point x="340.589" y="0" type="line" smooth="yes"/>
      <point x="498.7" y="0"/>
      <point x="611" y="50.9767"/>
      <point x="611" y="172.65" type="curve" smooth="yes"/>
      <point x="611" y="270.166"/>
      <point x="540.053" y="324.122"/>
      <point x="461.06" y="326.773" type="curve"/>
      <point x="517.095" y="326.214"/>
      <point x="570.996" y="366.185"/>
      <point x="570.996" y="450.827" type="curve" smooth="yes"/>
      <point x="570.996" y="571.342"/>
      <point x="460.439" y="600.069"/>
      <point x="333.554" y="600.069" type="curve" smooth="yes"/>
      <point x="138.61" y="600.069" type="line" smooth="yes"/>
    </contour>
    <contour>
      <point x="85.4674" y="600.069" type="line"/>
      <point x="85.4674" y="0" type="line"/>
      <point x="278.343" y="0" type="line"/>
      <point x="278.343" y="600.069" type="line"/>
    </contour>
    <contour>
      <point x="85.4666" y="62.446" type="line"/>
      <point x="85.5027" y="32.1736"/>
      <point x="62.6553" y="10"/>
      <point x="33.948" y="10" type="curve" smooth="yes"/>
      <point x="32.8977" y="10"/>
      <point x="25.1089" y="10"/>
      <point x="23" y="10" type="curve"/>
      <point x="23.0091" y="0" type="line"/>
      <point x="88.4822" y="0" type="line"/>
      <point x="88.4822" y="62.446" type="line"/>
    </contour>
    <contour>
      <point x="88.4818" y="600.069" type="line"/>
      <point x="23.0088" y="600.069" type="line"/>
      <point x="22.9999" y="590.07" type="line"/>
      <point x="25.1086" y="590.07"/>
      <point x="31.8387" y="590.069"/>
      <point x="33.9477" y="590.069" type="curve" smooth="yes"/>
      <point x="62.655" y="590.069"/>
      <point x="85.5025" y="567.767"/>
      <point x="85.4663" y="537.622" type="curve"/>
      <point x="88.4818" y="537.622" type="line"/>
    </contour>
  </outline>
</glyph>
<glyph name="c" format="1">
  <advance width="668"/>
  <unicode hex="0063"/>
  <outline>
    <contour>
      <point x="605.532" y="249.945" type="line"/>
      <point x="571.779" y="87.7067"/>
      <point x="542.056" y="33.4326"/>
      <point x="403.567" y="33.3145" type="curve"/>
      <point x="290.184" y="37.5529"/>
      <point x="227.47" y="142.441"/>
      <point x="227.47" y="303.756" type="curve" smooth="yes"/>
      <point x="227.47" y="458.376"/>
      <point x="283.767" y="566.558"/>
      <point x="420.74" y="566.558" type="curve" smooth="yes"/>
      <point x="503.675" y="566.558"/>
      <point x="565.592" y="529.004"/>
      <point x="601.603" y="405.951" type="curve"/>
      <point x="608.678" y="405.954" type="line"/>
      <point x="621.519" y="576.236" type="line"/>
      <point x="576.29" y="594.117"/>
      <point x="500.251" y="611.93"/>
      <point x="403.584" y="611.93" type="curve" smooth="yes"/>
      <point x="162.706" y="611.93"/>
      <point x="23.1823" y="497.282"/>
      <point x="23.1823" y="300.52" type="curve" smooth="yes"/>
      <point x="23.1823" y="99.3799"/>
      <point x="168.067" y="-11"/>
      <point x="403.584" y="-12" type="curve"/>
      <point x="541.413" y="-12"/>
      <point x="608.113" y="37.4695"/>
      <point x="638.818" y="90.1466" type="curve"/>
      <point x="612.607" y="249.942" type="line"/>
    </contour>
    <contour>
      <point x="377.074" y="679.274" type="move" name="top"/>
    </contour>
    <contour>
      <point x="387.584" y="-8.83333" type="move" name="bottom"/>
    </contour>
  </outline>
</glyph>
<glyph name="d" format="1">
  <advance width="741"/>
  <unicode hex="0064"/>
  <outline>
    <contour>
      <point x="120.182" y="600.071" type="line"/>
      <point x="120.182" y="554.704" type="line"/>
      <point x="288.17" y="554.704"/>
      <point x="339.462" y="554.704"/>
      <point x="339.462" y="554.704" type="curve" smooth="yes"/>
      <point x="447.103" y="554.704"/>
      <point x="512.399" y="460.449"/>
      <point x="512.399" y="299.516" type="curve" smooth="yes"/>
      <point x="512.399" y="139.619"/>
      <point x="446.059" y="46.4186"/>
      <point x="339.462" y="46.4186" type="curve" smooth="yes"/>
      <point x="339.462" y="46.4181"/>
      <point x="290.369" y="46.4178"/>
      <point x="128.823" y="46.4178" type="curve"/>
      <point x="130.957" y="0" type="line"/>
      <point x="359.29" y="0" type="line"/>
      <point x="585.105" y="0"/>
      <point x="717" y="109.651"/>
      <point x="717" y="299.516" type="curve" smooth="yes"/>
      <point x="717" y="489.355"/>
      <point x="585.105" y="600.071"/>
      <point x="359.29" y="600.071" type="curve"/>
    </contour>
    <contour>
      <point x="86.72" y="600.071" type="line"/>
      <point x="86.72" y="0" type="line"/>
      <point x="282.767" y="0" type="line"/>
      <point x="282.767" y="600.071" type="line"/>
    </contour>
    <contour>
      <point x="86.7204" y="64.3695" type="line"/>
      <point x="86.7036" y="34.0984"/>
      <point x="60.9807" y="10"/>
      <point x="30.8612" y="10" type="curve" smooth="yes"/>
      <point x="29.813" y="10"/>
      <point x="19.0095" y="10"/>
      <point x="19.0048" y="10" type="curve"/>
      <point x="19" y="0" type="line"/>
      <point x="89.9259" y="0" type="line"/>
      <point x="89.9259" y="64.3695" type="line"/>
    </contour>
    <contour>
      <point x="88.9384" y="600.066" type="line"/>
      <point x="18.0115" y="600.066" type="line"/>
      <point x="18.0173" y="590.066" type="line"/>
      <point x="19.0655" y="590.066"/>
      <point x="29.8394" y="590.066"/>
      <point x="29.8439" y="590.066" type="curve" smooth="yes"/>
      <point x="61.007" y="590.066"/>
      <point x="85.7161" y="567.828"/>
      <point x="86.7765" y="537.696" type="curve"/>
      <point x="88.9384" y="537.696" type="line"/>
    </contour>
    <contour>
      <point x="312.5" y="325.733" type="move" name="center"/>
    </contour>
    <contour>
      <point x="359.29" y="664.942" type="move" name="top"/>
    </contour>
  </outline>
</glyph>
<glyph name="e" format="1">
  <advance width="575"/>
  <unicode hex="0065"/>
  <outline>
    <contour>
      <point x="83.6841" y="599.935" type="line"/>
      <point x="83.6841" y="0" type="line"/>
      <point x="279.853" y="0" type="line"/>
      <point x="279.853" y="599.935" type="line"/>
    </contour>
    <contour>
      <point x="277.837" y="46.4032" type="line"/>
      <point x="277.837" y="0" type="line"/>
      <point x="530.832" y="0" type="line"/>
      <point x="490.727" y="46.4032" type="line"/>
    </contour>
    <contour>
      <point x="277.837" y="318.876" type="line"/>
      <point x="277.837" y="272.431" type="line"/>
      <point x="466.186" y="272.431" type="line"/>
      <point x="466.186" y="318.876" type="line"/>
    </contour>
    <contour>
      <point x="277.837" y="599.935" type="line"/>
      <point x="277.837" y="553.532" type="line" smooth="yes"/>
      <point x="510.243" y="553.532" type="line"/>
      <point x="510.243" y="599.935" type="line"/>
    </contour>
    <contour>
      <point x="552.094" y="210.028" type="line"/>
      <point x="527.258" y="105.669"/>
      <point x="453.165" y="46.4052"/>
      <point x="376.386" y="46.4052" type="curve"/>
      <point x="346.529" y="0" type="line"/>
      <point x="532.753" y="0" type="line"/>
      <point x="560.999" y="210.028" type="line"/>
    </contour>
    <contour>
      <point x="356.635" y="274.447" type="line"/>
      <point x="356.635" y="272.424" type="line"/>
      <point x="416.114" y="271.376"/>
      <point x="456.186" y="228.468"/>
      <point x="456.186" y="169.688" type="curve" smooth="yes"/>
      <point x="456.187" y="166.266" type="line"/>
      <point x="466.186" y="166.266" type="line"/>
      <point x="466.186" y="274.447" type="line"/>
    </contour>
    <contour>
      <point x="456.187" y="423.964" type="line"/>
      <point x="456.186" y="421.613" type="line" smooth="yes"/>
      <point x="456.186" y="362.832"/>
      <point x="416.114" y="319.924"/>
      <point x="356.635" y="318.876" type="curve"/>
      <point x="356.635" y="316.853" type="line"/>
      <point x="466.186" y="316.853" type="line"/>
      <point x="466.186" y="423.964" type="line"/>
    </contour>
    <contour>
      <point x="383.033" y="555.526" type="line"/>
      <point x="383.033" y="553.531" type="line"/>
      <point x="458.529" y="552.49"/>
      <point x="500.243" y="507.7"/>
      <point x="500.243" y="430.925" type="curve" smooth="yes"/>
      <point x="500.246" y="425.532" type="line"/>
      <point x="510.243" y="425.532" type="line"/>
      <point x="510.243" y="555.526" type="line"/>
    </contour>
    <contour>
      <point x="495.373" y="609.029"/>
      <point x="446.631" y="599.936"/>
      <point x="410.788" y="599.936" type="curve"/>
      <point x="510.243" y="590.894" type="line"/>
      <point x="510.243" y="615.021" type="line"/>
    </contour>
    <contour>
      <point x="83.6815" y="62.3978" type="line"/>
      <point x="83.7296" y="32.1335"/>
      <point x="59.6466" y="10"/>
      <point x="31.8623" y="10" type="curve" smooth="yes"/>
      <point x="30.7913" y="10"/>
      <point x="21.0014" y="10"/>
      <point x="21.0148" y="10" type="curve"/>
      <point x="21.0284" y="0" type="line"/>
      <point x="85.7843" y="0" type="line"/>
      <point x="86.72" y="62.3978" type="line"/>
    </contour>
    <contour>
      <point x="85.7861" y="599.935" type="line"/>
      <point x="21.0302" y="599.935" type="line"/>
      <point x="21.0164" y="589.935" type="line"/>
      <point x="21.003" y="589.935"/>
      <point x="30.793" y="589.935"/>
      <point x="31.864" y="589.935" type="curve" smooth="yes"/>
      <point x="59.6482" y="589.935"/>
      <point x="83.7312" y="567.706"/>
      <point x="83.6832" y="537.442" type="curve"/>
      <point x="86.7217" y="537.442" type="line"/>
    </contour>
    <contour>
      <point x="486.941" y="5" type="move" name="ogonek"/>
    </contour>
    <contour>
      <point x="300.688" y="0" type="move" name="bottom"/>
    </contour>
    <contour>
      <point x="287.688" y="664.436" type="move" name="top"/>
    </contour>
  </outline>
</glyph>
<glyph name="i" format="1">
  <advance width="363"/>
  <unicode hex="0069"/>
  <outline>
    <contour>
      <point x="82.8663" y="600.07" type="line"/>
      <point x="82.8663" y="0" type="line"/>
      <point x="279.055" y="0" type="line"/>
      <point x="279.055" y="600.07" type="line"/>
    </contour>
    <contour>
      <point x="82.8662" y="62.4124" type="line"/>
      <point x="82.9246" y="32.1414"/>
      <point x="59.2891" y="10"/>
      <point x="31.8815" y="10" type="curve" smooth="yes"/>
      <point x="30.8046" y="10"/>
      <point x="21.0019" y="10"/>
      <point x="21.0159" y="10" type="curve"/>
      <point x="21.0303" y="0" type="line"/>
      <point x="85.8777" y="0" type="line"/>
      <point x="85.8777" y="62.4124" type="line"/>
    </contour>
    <contour>
      <point x="277.136" y="0" type="line"/>
      <point x="341.984" y="0" type="line"/>
      <point x="341.998" y="10" type="line"/>
      <point x="340.922" y="10"/>
      <point x="331.119" y="10"/>
      <point x="331.133" y="10" type="curve" smooth="yes"/>
      <point x="302.634" y="10"/>
      <point x="280.089" y="32.1414"/>
      <point x="279.057" y="62.4124" type="curve"/>
      <point x="277.136" y="62.4124" type="line"/>
    </contour>
    <contour>
      <point x="279.061" y="537.657" type="line"/>
      <point x="280.093" y="567.929"/>
      <point x="302.638" y="590.07"/>
      <point x="331.136" y="590.07" type="curve" smooth="yes"/>
      <point x="331.647" y="590.07"/>
      <point x="341.449" y="590.071"/>
      <point x="341.449" y="590.071" type="curve"/>
      <point x="341.449" y="600.07" type="line"/>
      <point x="277.14" y="600.07" type="line"/>
      <point x="277.14" y="537.657" type="line"/>
    </contour>
    <contour>
      <point x="85.8813" y="600.07" type="line"/>
      <point x="21.0339" y="600.07" type="line"/>
      <point x="21.0195" y="590.071" type="line"/>
      <point x="21.0056" y="590.071"/>
      <point x="30.8082" y="590.07"/>
      <point x="31.8851" y="590.07" type="curve" smooth="yes"/>
      <point x="59.2927" y="590.07"/>
      <point x="82.9282" y="567.929"/>
      <point x="82.8698" y="537.657" type="curve"/>
      <point x="85.8813" y="537.657" type="line"/>
    </contour>
  </outline>
</glyph>
<glyph name="j" format="1">
  <advance width="361"/>
  <unicode hex="006A"/>
  <outline>
    <contour>
      <point x="80.2937" y="600.088" type="line" smooth="yes"/>
      <point x="80.2937" y="53.9201" type="line" smooth="yes"/>
      <point x="80.2948" y="-31"/>
      <point x="72.3698" y="-122"/>
      <point x="-13" y="-163" type="curve"/>
      <point x="-13" y="-172" type="line"/>
      <point x="131.104" y="-192"/>
      <point x="276.484" y="-105"/>
      <point x="276.484" y="50.6849" type="curve" smooth="yes"/>
      <point x="276.483" y="600.07" type="line"/>
    </contour>
    <contour>
      <point x="15.4482" y="600.089" type="line"/>
      <point x="15.5841" y="589.998" type="line"/>
      <point x="26.2463" y="590.019" type="line" smooth="yes"/>
      <point x="55.7487" y="590.019"/>
      <point x="79.6847" y="565.615"/>
      <point x="80.2361" y="535.312" type="curve"/>
      <point x="82.6893" y="535.312" type="line"/>
      <point x="82.6893" y="600.089" type="line"/>
    </contour>
    <contour>
      <point x="273.974" y="600.07" type="line"/>
      <point x="273.974" y="535.292" type="line"/>
      <point x="276.426" y="535.292" type="line"/>
      <point x="276.978" y="565.596"/>
      <point x="300.914" y="590"/>
      <point x="330.416" y="590" type="curve" smooth="yes"/>
      <point x="341.078" y="589.979" type="line"/>
      <point x="341.214" y="600.07" type="line"/>
    </contour>
  </outline>
</glyph>
<glyph name="k" format="1">
  <advance width="705"/>
  <unicode hex="006B"/>
  <outline>
    <contour>
      <point x="307.093" y="268.516" type="line"/>
      <point x="307.014" y="266.319"/>
      <point x="372.632" y="133.219"/>
      <point x="404" y="90" type="curve" smooth="yes"/>
      <point x="474.459" y="-7"/>
      <point x="612.284" y="0.127443"/>
      <point x="635.203" y="0.109517" type="curve" smooth="yes"/>
      <point x="737.68" y="0" type="line"/>
      <point x="737.68" y="8.42827" type="line"/>
      <point x="705.156" y="9.29368"/>
      <point x="674.755" y="33.0274"/>
      <point x="646.78" y="77.6293" type="curve" smooth="yes"/>
      <point x="447.259" y="404.833" type="line"/>
    </contour>
    <contour>
      <point x="536.084" y="593.557" type="line"/>
      <point x="307.093" y="268.516" type="line"/>
      <point x="371.571" y="278.592" type="line"/>
      <point x="622.681" y="593.557" type="line"/>
    </contour>
    <contour>
      <point x="679.073" y="600.514" type="line"/>
      <point x="478.593" y="600.514" type="line"/>
      <point x="478.593" y="591.957" type="line"/>
      <point x="486.624" y="591.965" type="line"/>
      <point x="510.035" y="591.965"/>
      <point x="520.148" y="571.507"/>
      <point x="506.4" y="551.968" type="curve"/>
      <point x="587.697" y="550.319" type="line"/>
      <point x="609.115" y="575.487"/>
      <point x="642.382" y="591.646"/>
      <point x="679.073" y="591.746" type="curve" smooth="yes"/>
      <point x="682.713" y="591.746" type="line"/>
      <point x="682.713" y="600.514" type="line"/>
    </contour>
    <contour>
      <point x="85.8907" y="600.514" type="line"/>
      <point x="85.8907" y="0" type="line"/>
      <point x="281.587" y="0" type="line"/>
      <point x="281.587" y="600.514" type="line"/>
    </contour>
    <contour>
      <point x="85.8817" y="62.4368" type="line"/>
      <point x="85.3371" y="32.4744"/>
      <point x="61.8162" y="10"/>
      <point x="32.7258" y="10" type="curve" smooth="yes"/>
      <point x="29.9056" y="10"/>
      <point x="22.9934" y="10"/>
      <point x="22.9934" y="10" type="curve"/>
      <point x="22.9934" y="0" type="line"/>
      <point x="88.3" y="0" type="line"/>
      <point x="88.3" y="62.4368" type="line"/>
    </contour>
    <contour>
      <point x="279.175" y="0" type="line"/>
      <point x="344.591" y="0" type="line"/>
      <point x="344.591" y="10" type="line"/>
      <point x="344.591" y="10"/>
      <point x="338.168" y="10"/>
      <point x="335.107" y="10" type="curve" smooth="yes"/>
      <point x="305.993" y="10"/>
      <point x="282.138" y="32.4744"/>
      <point x="281.593" y="62.4368" type="curve"/>
      <point x="279.175" y="62.4368" type="line"/>
    </contour>
    <contour>
      <point x="281.584" y="538.149" type="line"/>
      <point x="282.128" y="568.11"/>
      <point x="306.022" y="590.585"/>
      <point x="335.111" y="590.585" type="curve" smooth="yes"/>
      <point x="337.172" y="590.585"/>
      <point x="343.714" y="590.616"/>
      <point x="345.332" y="590.688" type="curve"/>
      <point x="345.467" y="600.585" type="line"/>
      <point x="279.166" y="600.585" type="line"/>
      <point x="279.166" y="538.149" type="line"/>
    </contour>
    <contour>
      <point x="88.3238" y="600.585" type="line"/>
      <point x="22.0235" y="600.585" type="line"/>
      <point x="22.158" y="590.688" type="line"/>
      <point x="23.9948" y="590.616"/>
      <point x="30.7107" y="590.585"/>
      <point x="32.7301" y="590.585" type="curve" smooth="yes"/>
      <point x="61.6427" y="590.585"/>
      <point x="85.3609" y="568.11"/>
      <point x="85.9068" y="538.149" type="curve"/>
      <point x="88.3238" y="538.149" type="line"/>
    </contour>
    <contour>
      <point x="386.469" y="-64.5642" type="move" name="bottom"/>
    </contour>
  </outline>
</glyph>
<glyph name="l" format="1">
  <advance width="557"/>
  <unicode hex="006C"/>
  <outline>
    <contour>
      <point x="83.6842" y="600.07" type="line"/>
      <point x="83.6842" y="0" type="line"/>
      <point x="279.853" y="0" type="line"/>
      <point x="279.853" y="600.07" type="line"/>
    </contour>
    <contour>
      <point x="277.837" y="46.4083" type="line"/>
      <point x="277.837" y="0" type="line"/>
      <point x="530.832" y="0" type="line"/>
      <point x="489.643" y="46.4083" type="line"/>
    </contour>
    <contour>
      <point x="551.546" y="210.053" type="line"/>
      <point x="526.711" y="105.683"/>
      <point x="453.165" y="46.4103"/>
      <point x="376.386" y="46.4103" type="curve"/>
      <point x="346.529" y="0" type="line"/>
      <point x="532.753" y="0" type="line"/>
      <point x="561.546" y="210.053" type="line"/>
    </contour>
    <contour>
      <point x="83.6816" y="62.4124" type="line"/>
      <point x="83.7297" y="32.1414"/>
      <point x="59.6467" y="10"/>
      <point x="31.8625" y="10" type="curve" smooth="yes"/>
      <point x="30.7915" y="10"/>
      <point x="21.0016" y="10"/>
      <point x="21.0149" y="10" type="curve"/>
      <point x="21.0286" y="0" type="line"/>
      <point x="85.7844" y="0" type="line"/>
      <point x="86.7201" y="62.4124" type="line"/>
    </contour>
    <contour>
      <point x="279.853" y="537.657" type="line"/>
      <point x="280.889" y="567.929"/>
      <point x="303.738" y="590.07"/>
      <point x="332.606" y="590.07" type="curve" smooth="yes"/>
      <point x="332.595" y="590.07"/>
      <point x="342.53" y="590.071"/>
      <point x="343.602" y="590.071" type="curve"/>
      <point x="343.59" y="600.07" type="line"/>
      <point x="277.899" y="600.07" type="line"/>
      <point x="277.899" y="537.657" type="line"/>
    </contour>
    <contour>
      <point x="86.7251" y="600.07" type="line"/>
      <point x="21.0337" y="600.07" type="line"/>
      <point x="21.0219" y="590.071" type="line"/>
      <point x="21.0104" y="590.071"/>
      <point x="30.945" y="590.07"/>
      <point x="32.0178" y="590.07" type="curve" smooth="yes"/>
      <point x="59.802" y="590.07"/>
      <point x="83.7347" y="567.929"/>
      <point x="83.6867" y="537.657" type="curve"/>
      <point x="86.7251" y="537.657" type="line"/>
    </contour>
    <contour>
      <point x="185.538" y="664" type="move" name="top"/>
    </contour>
    <contour>
      <point x="276.539" y="-64.5649" type="move" name="bottom"/>
    </contour>
    <contour>
      <point x="454.431" y="500" type="move" name="topright"/>
    </contour>
  </outline>
</glyph>
<glyph name="n" format="1">
  <advance width="779"/>
  <unicode hex="006E"/>
  <outline>
    <contour>
      <point x="91.467" y="498.308" type="line"/>
      <point x="699.299" y="-12" type="line"/>
      <point x="687.559" y="101.391" type="line"/>
      <point x="79.7201" y="612.933" type="line"/>
    </contour>
    <contour>
      <point x="82.8378" y="60.3792" type="line"/>
      <point x="82.8228" y="31.1168"/>
      <point x="58.1519" y="10"/>
      <point x="28.1079" y="10" type="curve" smooth="yes"/>
      <point x="28.1042" y="10"/>
      <point x="12.0073" y="10"/>
      <point x="12.0037" y="10" type="curve"/>
      <point x="12" y="0" type="line"/>
      <point x="86.0376" y="0" type="line"/>
      <point x="86.0376" y="60.3792" type="line"/>
    </contour>
    <contour>
      <point x="276.874" y="60.3792" type="line"/>
      <point x="276.874" y="0" type="line"/>
      <point x="350.386" y="0" type="line"/>
      <point x="350.386" y="10" type="line"/>
      <point x="350.386" y="10"/>
      <point x="334.289" y="10"/>
      <point x="333.759" y="10" type="curve" smooth="yes"/>
      <point x="303.716" y="10"/>
      <point x="280.089" y="31.1168"/>
      <point x="279.03" y="60.3792" type="curve"/>
    </contour>
    <contour>
      <point x="71.096" y="612.93" type="line"/>
      <point x="71.096" y="612.93"/>
      <point x="82.8379" y="574.811"/>
      <point x="82.8379" y="507.303" type="curve" smooth="yes"/>
      <point x="82.8379" y="0" type="line"/>
      <point x="279.031" y="0" type="line"/>
      <point x="279.012" y="402.219" type="line"/>
      <point x="79.7227" y="612.93" type="line"/>
    </contour>
    <contour>
      <point x="498.927" y="599.952" type="line"/>
      <point x="499.973" y="216.212" type="line"/>
      <point x="699.299" y="-12" type="line"/>
      <point x="707.905" y="-12" type="line" smooth="yes"/>
      <point x="707.905" y="-12"/>
      <point x="696.165" y="23.5419"/>
      <point x="696.165" y="96.7101" type="curve" smooth="yes"/>
      <point x="696.165" y="599.952" type="line"/>
    </contour>
    <contour>
      <point x="696.121" y="539.572" type="line"/>
      <point x="697.18" y="568.835"/>
      <point x="720.807" y="589.952"/>
      <point x="750.85" y="589.952" type="curve" smooth="yes"/>
      <point x="750.855" y="589.952"/>
      <point x="767.996" y="589.953"/>
      <point x="768" y="589.955" type="curve"/>
      <point x="768.003" y="599.952" type="line"/>
      <point x="693.965" y="599.952" type="line"/>
      <point x="693.965" y="539.572" type="line"/>
    </contour>
    <contour>
      <point x="502.13" y="539.572" type="line"/>
      <point x="502.13" y="599.952" type="line"/>
      <point x="428.092" y="599.952" type="line"/>
      <point x="428.097" y="589.955" type="line"/>
      <point x="428.1" y="589.953"/>
      <point x="445.241" y="589.952"/>
      <point x="445.245" y="589.952" type="curve" smooth="yes"/>
      <point x="475.288" y="589.952"/>
      <point x="498.915" y="568.835"/>
      <point x="498.93" y="539.572" type="curve"/>
    </contour>
    <contour>
      <point x="362.16" y="664" type="move" name="top"/>
    </contour>
    <contour>
      <point x="460.174" y="-64.5457" type="move" name="bottom"/>
    </contour>
  </outline>
</glyph>
<glyph name="p" format="1">
  <advance width="607"/>
  <unicode hex="0070"/>
  <outline>
    <contour>
      <point x="270.138" y="600.07"/>
      <point x="277.781" y="554.699"/>
      <point x="277.781" y="554.699" type="curve"/>
      <point x="292.232" y="554.699" type="line"/>
      <point x="350.233" y="554.699"/>
      <point x="384.376" y="510.683"/>
      <point x="388" y="443" type="curve" smooth="yes"/>
      <point x="388.746" y="429.076"/>
      <point x="386.649" y="409.484"/>
      <point x="383" y="391" type="curve" smooth="yes"/>
      <point x="365.285" y="298.525"/>
      <point x="307.096" y="289.83"/>
      <point x="307.096" y="289.83" type="curve"/>
      <point x="307.096" y="281.857" type="line"/>
      <point x="435.42" y="179.679"/>
      <point x="602.801" y="274.933"/>
      <point x="592" y="438" type="curve" smooth="yes"/>
      <point x="586.416" y="522.305"/>
      <point x="531.053" y="600.07"/>
      <point x="357.379" y="600.07" type="curve" smooth="yes"/>
      <point x="270.138" y="600.07" type="line" smooth="yes"/>
    </contour>
    <contour>
      <point x="83.6069" y="600.07" type="line"/>
      <point x="83.6069" y="0" type="line"/>
      <point x="279.808" y="0" type="line"/>
      <point x="279.808" y="600.07" type="line"/>
    </contour>
    <contour>
      <point x="83.6041" y="62.4124" type="line"/>
      <point x="83.6657" y="32.1414"/>
      <point x="61.0184" y="9.9196"/>
      <point x="32.6307" y="9.9196" type="curve" smooth="yes"/>
      <point x="30.4625" y="9.9196"/>
      <point x="24.1619" y="9.9196"/>
      <point x="21.9943" y="9.9196" type="curve"/>
      <point x="22.0118" y="0" type="line"/>
      <point x="85.4075" y="0" type="line"/>
      <point x="86.6077" y="62.4124" type="line"/>
    </contour>
    <contour>
      <point x="84.3427" y="600.07" type="line"/>
      <point x="20.9469" y="600.07" type="line"/>
      <point x="20.9293" y="590.07" type="line"/>
      <point x="24.1893" y="590.07"/>
      <point x="29.3975" y="590.07"/>
      <point x="31.5656" y="590.07" type="curve" smooth="yes"/>
      <point x="59.9535" y="590.07"/>
      <point x="83.6008" y="567.833"/>
      <point x="83.6316" y="537.562" type="curve"/>
      <point x="85.5428" y="537.562" type="line"/>
    </contour>
    <contour>
      <point x="279.099" y="0" type="line"/>
      <point x="342.494" y="0" type="line"/>
      <point x="342.512" y="10" type="line"/>
      <point x="340.344" y="10"/>
      <point x="334.263" y="10"/>
      <point x="332" y="10" type="curve" smooth="yes"/>
      <point x="301.453" y="10"/>
      <point x="280.841" y="32.1414"/>
      <point x="279.81" y="62.4124" type="curve"/>
      <point x="277.899" y="62.4124" type="line"/>
    </contour>
  </outline>
</glyph>
<glyph name="r" format="1">
  <advance width="678"/>
  <unicode hex="0072"/>
  <outline>
    <contour>
      <point x="282.599" y="600.07"/>
      <point x="288.119" y="552"/>
      <point x="290.299" y="552" type="curve" smooth="yes"/>
      <point x="309" y="552"/>
      <point x="307.687" y="552"/>
      <point x="311" y="552" type="curve" smooth="yes"/>
      <point x="316" y="552"/>
      <point x="394" y="557"/>
      <point x="400" y="443" type="curve" smooth="yes"/>
      <point x="401" y="425"/>
      <point x="399" y="415"/>
      <point x="399" y="411" type="curve" smooth="yes"/>
      <point x="390" y="327"/>
      <point x="355.45" y="301.917"/>
      <point x="323" y="301.917" type="curve" smooth="yes"/>
      <point x="319.876" y="301.917"/>
      <point x="318.772" y="301.917"/>
      <point x="317.931" y="301.917" type="curve"/>
      <point x="317.931" y="294.374" type="line"/>
      <point x="322.681" y="291.917"/>
      <point x="341" y="284"/>
      <point x="351" y="237" type="curve" smooth="yes"/>
      <point x="361" y="188"/>
      <point x="369" y="151"/>
      <point x="398" y="101" type="curve" smooth="yes"/>
      <point x="456" y="2"/>
      <point x="512" y="0"/>
      <point x="619.303" y="0" type="curve" smooth="yes"/>
      <point x="737" y="0" type="line"/>
      <point x="737" y="10.0107" type="line"/>
      <point x="705" y="10"/>
      <point x="686" y="15"/>
      <point x="648" y="73" type="curve" smooth="yes"/>
      <point x="617" y="120"/>
      <point x="599" y="161"/>
      <point x="585" y="186" type="curve" smooth="yes"/>
      <point x="568" y="217"/>
      <point x="527" y="262"/>
      <point x="475.885" y="275.458" type="curve"/>
      <point x="580" y="293"/>
      <point x="604" y="374"/>
      <point x="604" y="435" type="curve" smooth="yes"/>
      <point x="604" y="575"/>
      <point x="477" y="600"/>
      <point x="376.008" y="600.07" type="curve" smooth="yes"/>
      <point x="282.599" y="600.07" type="line" smooth="yes"/>
    </contour>
    <contour>
      <point x="93.9211" y="600.07" type="line"/>
      <point x="93.9211" y="0" type="line"/>
      <point x="291.232" y="0" type="line"/>
      <point x="291.232" y="600.07" type="line"/>
    </contour>
    <contour>
      <point x="93.917" y="62.4124" type="line"/>
      <point x="94" y="32"/>
      <point x="70" y="10"/>
      <point x="43" y="10" type="curve" smooth="yes"/>
      <point x="38" y="10"/>
      <point x="35" y="10"/>
      <point x="31.9991" y="10" type="curve"/>
      <point x="32.0155" y="0" type="line"/>
      <point x="95.8077" y="0" type="line"/>
      <point x="96.9307" y="62.4124" type="line"/>
    </contour>
    <contour>
      <point x="95.8098" y="600.07" type="line"/>
      <point x="32.0175" y="600.07" type="line"/>
      <point x="32" y="590" type="line"/>
      <point x="34" y="590"/>
      <point x="38" y="590"/>
      <point x="44" y="590" type="curve" smooth="yes"/>
      <point x="71" y="590"/>
      <point x="94" y="568"/>
      <point x="93.919" y="537.562" type="curve"/>
      <point x="96.9328" y="537.562" type="line"/>
    </contour>
    <contour>
      <point x="290.431" y="0" type="line"/>
      <point x="353.133" y="0" type="line"/>
      <point x="353.15" y="10" type="line"/>
      <point x="349.262" y="10"/>
      <point x="344" y="10"/>
      <point x="344" y="10" type="curve" smooth="yes"/>
      <point x="321" y="10"/>
      <point x="291" y="27"/>
      <point x="291.232" y="62.4124" type="curve"/>
      <point x="289.308" y="62.4124" type="line"/>
    </contour>
    <contour>
      <point x="334.667" y="664.292" type="move" name="top"/>
    </contour>
    <contour>
      <point x="421.117" y="-64.5649" type="move" name="bottom"/>
    </contour>
  </outline>
</glyph>
<glyph name="s" format="1">
  <advance width="549"/>
  <unicode hex="0073"/>
  <outline>
    <contour>
      <point x="133.577" y="611.93"/>
      <point x="65.9472" y="561.384"/>
      <point x="51.2209" y="457" type="curve" smooth="yes"/>
      <point x="38.4807" y="366.694"/>
      <point x="80.263" y="294.138"/>
      <point x="166.024" y="257.524" type="curve" smooth="yes"/>
      <point x="271.151" y="208.946" type="line" smooth="yes"/>
      <point x="342.425" y="178.16"/>
      <point x="370.633" y="148.656"/>
      <point x="370.633" y="111.996" type="curve" smooth="yes"/>
      <point x="370.633" y="73.3772"/>
      <point x="341.129" y="33.4523"/>
      <point x="266.221" y="34" type="curve" smooth="yes"/>
      <point x="147.332" y="34.8692"/>
      <point x="80.9405" y="124.746"/>
      <point x="84.6951" y="215.542" type="curve"/>
      <point x="79.2564" y="215.542" type="line"/>
      <point x="48.3015" y="178.327"/>
      <point x="27.3954" y="90.7532"/>
      <point x="48.6315" y="45.1508" type="curve"/>
      <point x="72.456" y="15.0678"/>
      <point x="137.05" y="-12"/>
      <point x="240.68" y="-12" type="curve" smooth="yes"/>
      <point x="405.888" y="-12"/>
      <point x="502.558" y="53.4178"/>
      <point x="513.221" y="182" type="curve" smooth="yes"/>
      <point x="520.869" y="274.225"/>
      <point x="473.807" y="331.376"/>
      <point x="407" y="359.772" type="curve" smooth="yes"/>
      <point x="277.537" y="419.034" type="line" smooth="yes"/>
      <point x="234.561" y="436.694"/>
      <point x="191.427" y="454.438"/>
      <point x="196.221" y="499" type="curve" smooth="yes"/>
      <point x="200.583" y="539.543"/>
      <point x="236.13" y="565.458"/>
      <point x="298.628" y="565.458" type="curve" smooth="yes"/>
      <point x="378.953" y="565.458"/>
      <point x="428.61" y="521.379"/>
      <point x="428.61" y="457.289" type="curve"/>
      <point x="435.192" y="457.289" type="line"/>
      <point x="456.937" y="592.794" type="line"/>
      <point x="440.505" y="601.891"/>
      <point x="281.935" y="611.93"/>
      <point x="241.371" y="611.93" type="curve" smooth="yes"/>
    </contour>
    <contour>
      <point x="326.271" y="602.867" type="line" smooth="yes"/>
      <point x="326.271" y="585.748" type="line"/>
      <point x="455.795" y="585.748" type="line"/>
      <point x="459.228" y="602.867" type="line"/>
    </contour>
    <contour>
      <point x="286.886" y="664" type="move" name="top"/>
    </contour>
    <contour>
      <point x="281.134" y="-64" type="move" name="bottom"/>
    </contour>
  </outline>
</glyph>
<glyph name="u" format="1">
  <advance width="708"/>
  <unicode hex="0075"/>
  <outline>
    <contour>
      <point x="76.1004" y="600.07" type="line"/>
      <point x="76.1065" y="220.554" type="line" smooth="yes"/>
      <point x="76.1087" y="74.8788"/>
      <point x="169.745" y="-12"/>
      <point x="386.555" y="-12" type="curve" smooth="yes"/>
      <point x="550.522" y="-12"/>
      <point x="639.898" y="75.9175"/>
      <point x="639.897" y="222.606" type="curve" smooth="yes"/>
      <point x="639.895" y="600.072" type="line"/>
      <point x="561.148" y="600.072" type="line"/>
      <point x="561.168" y="211.818" type="line" smooth="yes"/>
      <point x="560.093" y="100.631"/>
      <point x="508.328" y="35.7543"/>
      <point x="417.892" y="35.7543" type="curve" smooth="yes"/>
      <point x="325.591" y="35.7543"/>
      <point x="272.261" y="104.652"/>
      <point x="272.261" y="222.911" type="curve"/>
      <point x="272.257" y="600.07" type="line" smooth="yes"/>
    </contour>
    <contour>
      <point x="19.01" y="600.07" type="line"/>
      <point x="19.01" y="592.136" type="line"/>
      <point x="19.0016" y="592.136"/>
      <point x="32.0055" y="592.135"/>
      <point x="31.9972" y="592.135" type="curve" smooth="yes"/>
      <point x="56.0511" y="592.135"/>
      <point x="76.1376" y="574.007"/>
      <point x="76.1023" y="548.765" type="curve"/>
      <point x="78.1071" y="548.765" type="line"/>
      <point x="78.1071" y="600.07" type="line"/>
    </contour>
    <contour>
      <point x="270.248" y="600.07" type="line"/>
      <point x="270.248" y="548.765" type="line"/>
      <point x="272.253" y="548.765" type="line"/>
      <point x="272.218" y="574.007"/>
      <point x="291.224" y="592.135"/>
      <point x="315.278" y="592.135" type="curve" smooth="yes"/>
      <point x="315.27" y="592.135"/>
      <point x="329.354" y="592.136"/>
      <point x="329.346" y="592.136" type="curve"/>
      <point x="329.346" y="600.07" type="line"/>
    </contour>
    <contour>
      <point x="504.058" y="600.07" type="line"/>
      <point x="504.058" y="592.136" type="line"/>
      <point x="504.049" y="592.136"/>
      <point x="517.053" y="592.135"/>
      <point x="517.045" y="592.135" type="curve" smooth="yes"/>
      <point x="541.099" y="592.135"/>
      <point x="560.105" y="574.007"/>
      <point x="561.15" y="548.765" type="curve"/>
      <point x="563.155" y="548.765" type="line"/>
      <point x="563.155" y="600.07" type="line"/>
    </contour>
    <contour>
      <point x="637.893" y="600.07" type="line"/>
      <point x="637.893" y="548.765" type="line"/>
      <point x="639.898" y="548.765" type="line"/>
      <point x="639.862" y="574.007"/>
      <point x="659.949" y="592.135"/>
      <point x="684.003" y="592.135" type="curve" smooth="yes"/>
      <point x="683.995" y="592.135"/>
      <point x="696.998" y="592.136"/>
      <point x="696.99" y="592.136" type="curve"/>
      <point x="696.99" y="600.07" type="line"/>
    </contour>
    <contour>
      <point x="386.555" y="-3.83333" type="move" name="ogonek"/>
    </contour>
    <contour>
      <point x="397.682" y="664" type="move" name="top"/>
    </contour>
  </outline>
</glyph>
<glyph name="aogonek" format="1">
  <advance width="632"/>
  <unicode hex="0105"/>
  <outline>
    <contour>
      <point x="48.9312" y="62.061" type="line"/>
      <point x="30.4222" y="24.194"/>
      <point x="-2" y="10"/>
      <point x="-28" y="10" type="curve" smooth="yes"/>
      <point x="-28" y="10"/>
      <point x="-36" y="10"/>
      <point x="-36" y="10" type="curve"/>
      <point x="-36" y="0" type="line"/>
      <point x="160.218" y="0" type="line"/>
      <point x="160.218" y="9.90824" type="line"/>
      <point x="152.524" y="9.90824" type="line" smooth="yes"/>
      <point x="129.935" y="9.90824"/>
      <point x="103.486" y="27.764"/>
      <point x="118.913" y="61.779" type="curve"/>
    </contour>
    <contour>
      <point x="300.182" y="625.453" type="line"/>
      <point x="296.616" y="596.147"/>
      <point x="260.457" y="518.184"/>
      <point x="249.722" y="494.744" type="curve"/>
      <point x="21.245" y="2.631" type="line"/>
      <point x="92.597" y="2.631" type="line"/>
      <point x="307.634" y="484.984" type="line"/>
      <point x="308.006" y="625.453" type="line"/>
    </contour>
    <contour>
      <point x="228.508" y="393.57" type="line"/>
      <point x="395.84" y="5.181" type="line"/>
      <point x="611.609" y="5.181" type="line"/>
      <point x="308.006" y="625.453" type="line" smooth="yes"/>
    </contour>
    <contour>
      <point x="130.584" y="177.146" type="line"/>
      <point x="130.584" y="132.936" type="line"/>
      <point x="377.126" y="132.936" type="line"/>
      <point x="377.126" y="177.146" type="line"/>
    </contour>
    <contour>
      <point x="515.567" y="9.834"/>
      <point x="639.996" y="-2"/>
      <point x="666.26" y="-3" type="curve"/>
      <point x="666.26" y="7" type="line"/>
      <point x="666.26" y="7"/>
      <point x="608.594" y="14.231"/>
      <point x="585.382" y="58.78" type="curve"/>
      <point x="369.709" y="65.847" type="line"/>
      <point x="385.566" y="25.834"/>
      <point x="383.566" y="6.834"/>
      <point x="362.566" y="-7" type="curve" smooth="yes"/>
      <point x="329.566" y="-29"/>
      <point x="300.566" y="-44"/>
      <point x="292.566" y="-91" type="curve" smooth="yes"/>
      <point x="269.566" y="-227"/>
      <point x="489.566" y="-264"/>
      <point x="496.97" y="-128" type="curve"/>
      <point x="490.97" y="-122" type="line"/>
      <point x="442.566" y="-162"/>
      <point x="383.566" y="-140"/>
      <point x="378.566" y="-80" type="curve" smooth="yes"/>
      <point x="375.566" y="-49"/>
      <point x="389.566" y="-19"/>
      <point x="442.566" y="-7" type="curve" smooth="yes"/>
    </contour>
  </outline>
</glyph>
<glyph name="commaaccentcomb" format="1">
  <advance width="216"/>
  <unicode hex="0326"/>
  <outline>
    <contour>
      <point x="25.69" y="-32"/>
      <point x="21.374" y="-81"/>
      <point x="47.01" y="-110" type="curve" smooth="yes"/>
      <point x="84.676" y="-152"/>
      <point x="59.802" y="-189"/>
      <point x="34.15" y="-200" type="curve"/>
      <point x="36.884" y="-209" type="line"/>
      <point x="122.342" y="-226"/>
      <point x="192.7" y="-125"/>
      <point x="154.323" y="-41" type="curve" smooth="yes"/>
      <point x="136.556" y="-2"/>
      <point x="85.387" y="11.718"/>
      <point x="53.406" y="-12" type="curve" smooth="yes"/>
    </contour>
    <contour>
      <point x="95.5493" y="0" type="move" name="_bottom"/>
    </contour>
  </outline>
</glyph>
<glyph name="quoteright" format="1">
  <advance width="268"/>
  <unicode hex="2019"/>
  <outline>
    <contour>
      <point x="28.6739" y="802.143"/>
      <point x="22.3386" y="730"/>
      <point x="59.9663" y="687.403" type="curve" smooth="yes"/>
      <point x="115.25" y="624.818"/>
      <point x="78.7415" y="571.621"/>
      <point x="41.092" y="554.932" type="curve"/>
      <point x="45.1034" y="541.372" type="line"/>
      <point x="170.533" y="517.38"/>
      <point x="274.192" y="665.498"/>
      <point x="217.472" y="788.583" type="curve" smooth="yes"/>
      <point x="191.395" y="845.953"/>
      <point x="116.293" y="865.771"/>
      <point x="69.3539" y="831.349" type="curve" smooth="yes"/>
    </contour>
  </outline>
</glyph>
<glyph name="notequal" format="1">
  <advance width="481"/>
  <unicode hex="2260"/>
  <outline>
    <contour>
      <point x="40" y="353.891" type="line"/>
      <point x="441.723" y="353.891" type="line"/>
      <point x="441.723" y="418.891" type="line"/>
      <point x="40" y="418.891" type="line"/>
    </contour>
    <contour>
      <point x="40" y="178.891" type="line"/>
      <point x="441.723" y="178.891" type="line"/>
      <point x="441.723" y="243.891" type="line"/>
      <point x="40" y="243.891" type="line"/>
    </contour>
    <contour>
      <point x="117.049" y="85.24" type="line"/>
      <point x="178.255" y="57.663" type="line"/>
      <point x="390.541" y="501" type="line"/>
      <point x="330.605" y="528.564" type="line"/>
    </contour>
  </outline>
</glyph>
